<?xml version="1.0" encoding="UTF-8"?>
<svg version="1.1" xmlns="http://www.w3.org/2000/svg" width="784" height="719">
<path d="M0 0 C1.08574487 -0.00327219 2.17148975 -0.00654439 3.29013598 -0.00991574 C5.08982771 -0.0076903 5.08982771 -0.0076903 6.92587686 -0.00541991 C8.83747403 -0.00894826 8.83747403 -0.00894826 10.78768933 -0.01254788 C14.34791228 -0.01896647 17.90811271 -0.01910803 21.46834035 -0.01827047 C25.33299897 -0.0184396 29.19764944 -0.02434161 33.06230402 -0.02951133 C40.73762691 -0.03885178 48.41294403 -0.0427618 56.08827189 -0.0450303 C65.2774715 -0.04798858 74.46666341 -0.05668373 83.65585899 -0.06544458 C105.86801129 -0.08630441 128.08016492 -0.09676084 150.29232473 -0.10557419 C160.7953887 -0.10977814 171.2984521 -0.11500044 181.80151558 -0.12025872 C217.73856739 -0.13814943 253.67561936 -0.15314686 289.61267495 -0.16057891 C291.86945534 -0.16105367 294.12623573 -0.16152956 296.38301612 -0.16200657 C297.5022002 -0.16224294 298.62138429 -0.16247932 299.77448304 -0.16272286 C305.44503559 -0.16392409 311.11558813 -0.16513953 316.78614068 -0.16636485 C317.9114881 -0.166605 319.03683552 -0.16684515 320.19628437 -0.16709258 C356.69768663 -0.17498871 393.19905642 -0.19842674 429.7004445 -0.23092079 C468.27140833 -0.26519467 506.84235315 -0.28492774 545.41333246 -0.28822315 C549.64496526 -0.2886407 553.87659804 -0.28912027 558.10823083 -0.28964633 C559.67120683 -0.28983111 559.67120683 -0.28983111 561.2657581 -0.29001964 C578.0560843 -0.29235461 594.84637287 -0.30803106 611.63668564 -0.32848817 C628.50341613 -0.34871288 645.37010128 -0.35423939 662.23684165 -0.34471754 C672.26457985 -0.33948962 682.29216748 -0.34544079 692.31988411 -0.36725221 C699.01291713 -0.38071356 705.70584598 -0.37972481 712.39887993 -0.36685025 C716.21592638 -0.35992241 720.03268399 -0.35938973 723.84970519 -0.37641034 C727.95747135 -0.39457872 732.06456108 -0.38195398 736.17233682 -0.36618346 C737.95798155 -0.38151677 737.95798155 -0.38151677 739.77969992 -0.39715984 C747.42533109 -0.3326503 751.95152603 0.63869853 757.72657037 5.87489492 C758.18418756 6.43305898 758.64180474 6.99122304 759.11328912 7.56630117 C759.58379693 8.1218871 760.05430474 8.67747304 760.53907037 9.24989492 C764.03360125 14.45382481 764.09009111 19.18444273 764.06821465 25.2493456 C764.07274577 26.17015047 764.07727688 27.09095533 764.0819453 28.03966337 C764.09460959 31.12639307 764.0929676 34.21294679 764.09131646 37.2996996 C764.09730049 39.51240944 764.10410575 41.72511718 764.11167169 43.93782216 C764.1293529 49.95034647 764.134028 55.96281386 764.13530326 61.97536165 C764.13720209 66.99513338 764.14455955 72.01489186 764.15164745 77.03465849 C764.16700695 88.20288435 764.17298465 99.37108919 764.17163675 110.53932336 C764.17151688 111.54412757 764.17151688 111.54412757 764.17139459 112.56923085 C764.17131283 113.23992149 764.17123106 113.91061213 764.17114682 114.60162672 C764.17033432 125.46551937 764.18946344 136.32927324 764.21767132 147.19312575 C764.24642794 158.35672297 764.25984413 169.52026942 764.25848377 180.68390852 C764.25797401 186.94792832 764.26366486 193.21179111 764.28483987 199.4757784 C764.3042176 205.36914182 764.30434961 211.26219841 764.2898066 217.15557271 C764.28771677 219.31585305 764.29242977 221.47615257 764.30452752 223.63640004 C764.3200011 226.59139985 764.31065745 229.5453445 764.29526544 232.50032216 C764.30555256 233.35005031 764.31583969 234.19977845 764.32643855 235.07525593 C764.2401019 242.60431274 762.12382615 249.14060395 756.67578912 254.50380117 C748.38993488 260.83585687 737.32845311 260.912971 727.32813287 261.73426992 C725.83609185 261.86379076 724.34411383 261.99403927 722.85219598 262.12497121 C719.7354099 262.39619295 716.61812389 262.66016268 713.50025201 262.91859609 C709.55516191 263.24595463 705.61163499 263.58897667 701.6683495 263.93732911 C698.58766709 264.20806029 695.50638342 264.47137277 692.4248755 264.73252469 C690.97343681 264.8561564 689.52215712 264.98167331 688.07106614 265.10932142 C680.24010083 265.79296076 672.43481447 266.25677522 664.57251763 266.33705312 C663.86480438 266.35031983 663.15709113 266.36358653 662.42793202 266.37725526 C656.6459968 266.38154666 652.90586679 265.17006935 648.80078912 261.12880117 C648.30321099 260.65958242 647.80563287 260.19036367 647.29297662 259.70692617 C641.04756224 253.06894289 641.51281646 245.02515956 641.54541802 236.48964101 C641.54179757 235.33597539 641.53817712 234.18230977 641.53444695 232.99368459 C641.52757021 230.49686517 641.52504428 228.00003078 641.52639413 225.50320226 C641.52736071 221.5525845 641.51440264 217.60223777 641.49741387 213.65165883 C641.45050745 202.42238653 641.42643796 191.19312814 641.41992974 179.9637621 C641.41577739 173.08913752 641.39071992 166.21480505 641.35460305 159.34027654 C641.34479081 156.72080489 641.34248081 154.10129411 641.34777474 151.48180944 C641.35482338 147.82395195 641.33760871 144.16694894 641.31494927 140.50917226 C641.32312173 139.42540807 641.33129418 138.34164388 641.33971429 137.22503835 C641.28774409 131.3032527 641.28774409 131.3032527 638.89365411 125.98002797 C633.3007689 121.03288658 624.54378141 121.98023614 617.42943597 121.97058278 C616.63770409 121.96564481 615.84597221 121.96070683 615.03024846 121.95561922 C612.40485442 121.94038839 609.77948455 121.93192317 607.1540606 121.9234789 C605.26112941 121.91388901 603.3682003 121.90387829 601.47527337 121.89348012 C596.35614832 121.86654535 591.23701416 121.84547422 586.11785793 121.82547814 C580.76069186 121.80354775 575.40355351 121.77619369 570.04640985 121.74942189 C559.91067493 121.6995901 549.77492455 121.65461613 539.6391595 121.61139953 C528.09622584 121.56194566 516.55332001 121.50705785 505.01041329 121.45171994 C481.27389788 121.338046 457.53735576 121.23117542 433.80078912 121.12880117 C433.802308 121.85577294 433.80382688 122.58274471 433.80539179 123.33174592 C433.89489231 166.41219647 433.96352939 209.4926369 434.00505044 252.57316178 C434.0100533 257.74519147 434.01523058 262.91722098 434.02051568 268.08925039 C434.02156492 269.118914 434.02261416 270.14857761 434.0236952 271.20944315 C434.0411033 287.8844729 434.07264324 304.55944752 434.1094003 321.23444456 C434.14679841 338.34286749 434.16902258 355.45126154 434.1771431 372.55972368 C434.18263321 383.11768255 434.19997706 393.67548561 434.23245499 404.23339653 C434.25358891 411.47207106 434.2599917 418.71066497 434.25479463 425.94936812 C434.25223111 430.12656574 434.25617757 434.30349097 434.27761102 438.48064023 C434.29709926 442.30664451 434.29804464 446.13219361 434.2843847 449.95821899 C434.28189865 451.99431574 434.29913023 454.03040726 434.31711435 456.0664261 C434.26220537 464.46183543 433.33242361 469.93498521 427.80078912 476.50380117 C418.52046783 481.53064187 405.58496611 480.92206895 395.16407037 481.85536367 C393.47315172 482.00927196 391.78224932 482.16335881 390.09136224 482.31761342 C386.56257012 482.63835596 383.03347918 482.95553473 379.50415826 483.27040273 C375.03034335 483.6700188 370.55762089 484.08067908 366.08508801 484.49436551 C362.59608169 484.81542467 359.10645922 485.12935596 355.61663651 485.44140416 C353.96976978 485.58968997 352.32311197 485.74031921 350.67669892 485.89356023 C342.28070612 486.6719172 333.90327582 487.2811401 325.46949029 487.40760976 C324.77101385 487.42725097 324.07253741 487.44689218 323.35289502 487.46712857 C318.97685124 487.48033822 316.17483919 486.96710011 312.80078912 484.12880117 C310.27287021 479.86876223 309.42645554 476.74570053 309.43164563 471.81511289 C309.42567249 470.55959438 309.41969934 469.30407587 309.41354519 468.01051134 C309.42210324 466.6250637 309.43094001 465.23961776 309.44002557 463.85417348 C309.43871696 462.37643973 309.43608951 460.89870666 309.43225807 459.42097729 C309.42555204 455.36408222 309.43754734 451.30742489 309.45259225 447.2505601 C309.46554666 442.87434667 309.46116358 438.49814666 309.45888543 434.12191945 C309.45731232 426.54107278 309.46672548 418.96030356 309.48359895 411.37947637 C309.50797925 400.41888285 309.51579323 389.45832678 309.51956292 378.49770908 C309.52612892 360.71488781 309.54609414 342.93210783 309.57447076 325.14930898 C309.60200747 307.87489702 309.62324295 290.60049627 309.6359942 273.32606679 C309.63678237 272.26128571 309.63757054 271.19650463 309.63838259 270.09945746 C309.6422977 264.7577679 309.64608883 259.41607826 309.6498183 254.07438856 C309.68091884 209.75916417 309.73375871 165.4439848 309.80078912 121.12880117 C284.10561894 121.18932382 258.41054846 121.26681543 232.71549153 121.36451608 C220.78486729 121.40948428 208.85427296 121.44889664 196.92359185 121.47523671 C186.5249826 121.49820843 176.12646794 121.53159731 165.7279337 121.57750273 C160.22183892 121.60144597 154.7158379 121.62016758 149.20969224 121.62641507 C144.02636148 121.63246087 138.84327066 121.65244272 133.6600287 121.68307668 C131.75855575 121.69186496 129.85705145 121.69557785 127.95555902 121.69380933 C125.35656794 121.69215541 122.75830724 121.70886582 120.15941644 121.73007375 C119.40939856 121.72522617 118.65938069 121.7203786 117.88663501 121.71538413 C112.73975632 121.78455444 109.27035919 122.73369713 104.80078912 125.12880117 C102.03015547 129.28475164 101.67464549 132.92466883 101.68294549 137.83880788 C101.68182763 138.75678655 101.68070977 139.67476522 101.67955804 140.62056142 C101.68322885 141.61545583 101.68689965 142.61035024 101.6906817 143.63539296 C101.69013909 145.82693655 101.6895521 148.01848013 101.68892694 150.2100237 C101.6903551 151.36942149 101.69178327 152.52881929 101.69325471 153.72335035 C101.69678056 159.87612296 101.67096573 166.02880484 101.65039849 172.18153554 C101.62607839 180.00509964 101.61035321 187.82839792 101.62574029 195.65199453 C101.63742038 201.9798169 101.61995455 208.30698096 101.58329606 214.6347006 C101.57469755 217.04071114 101.57673495 219.44678496 101.58980012 221.85277539 C101.60675503 225.22765683 101.58642714 228.60047495 101.5578692 231.97523671 C101.57166116 232.96000997 101.58545312 233.94478322 101.59966302 234.95939809 C101.48020858 242.27627888 99.29986256 247.35638819 94.80078912 253.12880117 C85.37059196 261.99920506 68.81811349 260.59281156 56.58594537 261.63661367 C55.07570512 261.76802473 53.56548724 261.89969301 52.05529046 262.03160268 C48.92012745 262.30459095 45.78474959 262.57490564 42.64917779 262.84315664 C38.64562221 263.18582726 34.64263783 263.53472099 30.63978696 263.88551694 C27.53350357 264.15715594 24.42696915 264.42582872 21.32034898 264.69358617 C19.84399387 264.82112675 18.36771055 264.94950141 16.89150453 265.07875615 C14.83033954 265.25872005 12.76887404 265.43474844 10.70728326 265.6097582 C9.53927682 265.71031514 8.37127038 265.81087209 7.16786981 265.91447622 C-1.19692129 266.44692067 -7.51513851 266.32166389 -14.01171088 260.69130117 C-17.82780702 256.22101712 -20.3182219 253.14638135 -20.33343196 247.09630471 C-20.3378898 246.2731838 -20.34234765 245.45006289 -20.34694058 244.60199893 C-20.34675621 243.69793061 -20.34657185 242.79386229 -20.3463819 241.86239797 C-20.35005859 240.90176086 -20.35373528 239.94112376 -20.35752338 238.95137644 C-20.36857597 235.71795082 -20.37240674 232.48455732 -20.37621284 229.25111562 C-20.38247629 226.93855863 -20.38912299 224.62600265 -20.39612556 222.31344777 C-20.4135461 216.01990405 -20.4240902 209.72636794 -20.43233109 203.43280607 C-20.437479 199.5021107 -20.44355482 195.5714177 -20.44984221 191.640724 C-20.46671306 180.75554112 -20.48134784 169.87036116 -20.48859096 158.98516732 C-20.49050081 156.16073081 -20.49242115 153.3362943 -20.4943769 150.51185781 C-20.49486064 149.80986771 -20.49534438 149.10787761 -20.49584278 148.38461509 C-20.50414119 137.01553988 -20.52947502 125.64656996 -20.56195758 114.27754072 C-20.59504324 102.60211497 -20.61270842 90.92674813 -20.6162352 79.25127554 C-20.61858751 72.69717465 -20.62757179 66.14324015 -20.65269637 59.58918363 C-20.67595352 53.42254888 -20.68021961 47.25619035 -20.66993499 41.08952314 C-20.66943895 38.82722857 -20.67577932 36.56492051 -20.68949103 34.30266744 C-20.70717729 31.21148779 -20.70011924 28.12130291 -20.68695807 25.03012258 C-20.69792732 24.13720787 -20.70889657 23.24429316 -20.72019821 22.32432044 C-20.65035352 15.51834841 -19.03454807 9.99679099 -14.16405463 5.07020742 C-13.49503119 4.61516835 -12.82600776 4.16012929 -12.13671088 3.69130117 C-11.46510932 3.21821523 -10.79350776 2.74512929 -10.10155463 2.25770742 C-6.68036168 0.22747176 -3.88828995 0.00306054 0 0 Z " fill="#40B4E8" transform="translate(20.19921088218689,-0.128801167011261)"/>
<path d="M0 0 C4.1407577 3.99134892 6.84272249 7.79963859 7.2561264 13.58328819 C7.26926742 15.05395403 7.27141081 16.52474224 7.26501465 17.99545288 C7.27158655 19.21316972 7.27158655 19.21316972 7.27829123 20.45548689 C7.29062541 23.17920205 7.28880215 25.90272497 7.28710938 28.62646484 C7.29313271 30.57788886 7.30005674 32.52931027 7.30781555 34.48072815 C7.32271393 38.68499896 7.33145613 42.8892222 7.33552551 47.0935173 C7.3422333 53.74091093 7.36398123 60.38820271 7.38806152 67.03555298 C7.43705833 81.14867813 7.4693572 95.26182486 7.5 109.375 C7.53307632 124.60356448 7.56899608 139.83208918 7.62413073 155.06059229 C7.64748537 161.66896504 7.66122196 168.27726714 7.66762543 174.8856771 C7.67356285 178.99736033 7.68765843 183.10898628 7.70396996 187.22064018 C7.70984722 189.12738362 7.71231791 191.03414105 7.71113014 192.94089317 C7.70997077 195.54424391 7.72098933 198.14727284 7.73498535 200.75057983 C7.73168638 201.50467302 7.7283874 202.2587662 7.72498846 203.03571069 C7.77370753 208.52883734 8.34707268 213.02715127 11.9375 217.3125 C16.04141819 220.67025125 20.45462184 220.14220907 25.4890337 220.13142776 C26.81099366 220.13450672 26.81099366 220.13450672 28.15965989 220.13764787 C31.13964157 220.14334315 34.1195774 220.14185751 37.0995636 220.14044189 C39.24689814 220.14302408 41.39423221 220.14603682 43.5415656 220.1494453 C49.46342622 220.15753572 55.38527474 220.159306 61.30714023 220.16004276 C67.68558827 220.16188976 74.06402997 220.16943526 80.44247437 220.17617798 C95.12692389 220.19048536 109.81137095 220.19628956 124.49582624 220.20086992 C131.74968514 220.20320472 139.00354324 220.20680722 146.25740152 220.2105653 C171.08007182 220.22340124 195.90274168 220.23412075 220.72541523 220.2375679 C222.28401192 220.23778954 223.84260862 220.23801132 225.40120531 220.23823325 C226.96360011 220.23845389 228.5259949 220.23867438 230.08838969 220.2388947 C233.22290758 220.23933726 236.35742547 220.23978437 239.49194336 220.24023438 C240.26912319 220.24034377 241.04630302 220.24045316 241.84703375 220.24056586 C267.05450189 220.24419755 292.26194129 220.26012158 317.46939842 220.28342474 C344.11003733 220.30800786 370.75065981 220.32174002 397.39131039 220.32293582 C400.31444912 220.32310728 403.23758783 220.32332271 406.16072655 220.32357025 C406.88050391 220.32362602 407.60028127 220.32368179 408.34187007 220.32373925 C419.93648233 220.32489097 431.53106516 220.33592323 443.12566748 220.35045731 C454.77445557 220.36480709 466.4231971 220.36781489 478.07199255 220.36001733 C484.38554959 220.35609955 490.69900733 220.35709531 497.01255226 220.37107468 C502.78797475 220.38374598 508.56322264 220.38267595 514.33864465 220.37048396 C516.43218923 220.36851518 518.5257459 220.37165942 520.61927346 220.38032833 C523.45754425 220.39134049 526.29519009 220.3839899 529.13344288 220.3719368 C529.95268723 220.37953199 530.77193158 220.38712718 531.61600152 220.39495254 C537.29195626 220.3426555 541.44606219 219.23068097 545.84797668 215.38592529 C547.66500857 211.62271817 547.43914932 207.95180404 547.43237305 203.82519531 C547.44766052 202.43443535 547.44766052 202.43443535 547.46325684 201.01557922 C547.49343461 197.95303339 547.50266018 194.89080011 547.51171875 191.828125 C547.52856187 189.70390784 547.54671161 187.57970067 547.56611633 185.45550537 C547.61366218 179.86601889 547.64344199 174.27657291 547.66955566 168.68695068 C547.69933797 162.98262534 547.74587632 157.27843959 547.79101562 151.57421875 C547.87710097 140.38288545 547.94442307 129.19152347 548 118 C546.09105957 118.01332367 546.09105957 118.01332367 544.14355469 118.0269165 C532.13772205 118.10807855 520.13194523 118.16800218 508.12590027 118.20724869 C501.95377143 118.22810418 495.78186445 118.25638522 489.60986328 118.30175781 C483.65114161 118.34528731 477.69263307 118.36915244 471.73376465 118.37950897 C469.46281582 118.38688751 467.19187837 118.40129607 464.92102051 118.42292023 C461.73485299 118.45204786 458.54956095 118.45595198 455.36328125 118.45410156 C454.42891739 118.46848267 453.49455353 118.48286377 452.53187561 118.49768066 C445.57855217 118.45411692 440.29297191 116.84161861 434.9765625 112.25390625 C434.30753906 111.41666016 434.30753906 111.41666016 433.625 110.5625 C433.16351562 110.00691406 432.70203125 109.45132813 432.2265625 108.87890625 C429.26408461 104.34084298 428.74287259 100.41333577 428.70947266 95.04174805 C428.69939682 94.0211731 428.69939682 94.0211731 428.68911743 92.97998047 C428.67018852 90.74048468 428.6662157 88.50128947 428.6640625 86.26171875 C428.65763037 84.6961912 428.6509017 83.13066484 428.64389038 81.56513977 C428.63192993 78.28599259 428.62820822 75.00695065 428.62939453 71.7277832 C428.6295975 67.54148882 428.602313 63.35587496 428.56785011 59.16974163 C428.54552728 55.93621265 428.54155865 52.70284594 428.54261398 49.46924782 C428.54026544 47.92678295 428.53148424 46.38431309 428.51594925 44.84192467 C428.43121106 35.5586958 428.61090975 28.55733069 434.5703125 21.01171875 C444.10248338 12.89260838 456.89931639 13.0973353 468.80102539 12.09887695 C470.69928228 11.93184189 472.5974586 11.763889 474.49555969 11.59509277 C479.62683773 11.1414818 484.75916153 10.70094571 489.89179921 10.26302361 C495.27471486 9.80170704 500.65663007 9.32898978 506.03868103 8.85771179 C515.07376732 8.06821831 524.10951339 7.28668633 533.14575195 6.51049805 C543.5802496 5.61416044 554.01384341 4.70787483 564.44696432 3.79566032 C575.574705 2.82272438 586.70295879 1.85577159 597.83143306 0.89126563 C601.02970756 0.61375403 604.22789666 0.33527447 607.42607307 0.0566349 C612.45808835 -0.38138724 617.49044316 -0.81528973 622.52308464 -1.2460556 C624.3658061 -1.40436574 626.20841682 -1.56397113 628.05090332 -1.72499275 C630.57364341 -1.94521526 633.09675251 -2.16060475 635.62001038 -2.37480164 C636.34181758 -2.4389014 637.06362477 -2.50300116 637.80730492 -2.56904334 C654.54009252 -3.96522776 654.54009252 -3.96522776 661 0 C665.79533946 4.3611158 669.61112584 8.97483617 670.25299966 15.6187523 C670.25511294 17.03562909 670.25511294 17.03562909 670.25726891 18.48112965 C670.2637178 19.57645411 670.27016669 20.67177858 670.276811 21.8002947 C670.2737138 22.99814035 670.2706166 24.195986 670.26742554 25.43013 C670.27195665 26.70690949 670.27648776 27.98368898 670.28115618 29.29915875 C670.29339076 32.84113571 670.29312519 36.38301825 670.29076743 39.92501152 C670.29035938 43.74584972 670.30139731 47.5666576 670.31088257 51.38748169 C670.32749611 58.87255589 670.33299228 66.35759858 670.33410732 73.84268967 C670.33505764 79.92707973 670.33916713 86.0114594 670.34550858 92.09584618 C670.36312205 109.3464318 670.3723473 126.59699253 670.37084763 143.84758721 C670.37072776 145.24258842 670.37072776 145.24258842 670.37060547 146.66577148 C670.37052371 147.59690792 670.37044195 148.52804435 670.37035771 149.48739704 C670.3695448 164.57782355 670.38868326 179.66815024 670.4168822 194.75854788 C670.44560859 210.25348196 670.45942263 225.74836736 670.45769465 241.24332875 C670.45703066 249.94248271 670.46252698 258.64153203 670.48405075 267.340662 C670.50225934 274.74738767 670.50661258 282.15396127 670.4930319 289.56069962 C670.48650054 293.33895408 670.48639082 297.11691678 670.5037384 300.89514351 C670.52236117 304.99328963 670.50991912 309.09075988 670.49447632 313.18891907 C670.50476344 314.38007255 670.51505057 315.57122604 670.52564943 316.79847509 C670.45963312 324.71638907 669.39642954 330.19938883 663.96484375 336.27734375 C663.29582031 336.82519531 662.62679687 337.37304688 661.9375 337.9375 C660.93009766 338.78634766 660.93009766 338.78634766 659.90234375 339.65234375 C656.5781797 342.00724436 653.74932065 342.12569337 649.80193979 342.12880117 C648.71645114 342.13207336 647.63096249 342.13534555 646.51258025 342.13871691 C645.3130716 342.13723328 644.11356296 342.13574966 642.87770557 342.13422108 C641.60360705 342.13657331 640.32950854 342.13892554 639.01680097 342.14134905 C635.45741141 342.14776763 631.89804437 342.14790919 628.33865013 342.14707164 C624.47488012 342.14724077 620.61111827 342.15314278 616.7473523 342.1583125 C609.07375938 342.16765297 601.40017223 342.17156298 593.72657434 342.17383147 C584.53939722 342.17678976 575.35222779 342.18548493 566.1650547 342.19424575 C543.95736269 342.21510588 521.74966934 342.22556218 499.54196982 342.23437535 C489.0405689 342.23857939 478.53916855 342.24380169 468.03776811 342.24905988 C432.10515551 342.26695091 396.17254274 342.28194812 360.23992634 342.28938007 C357.98340005 342.28985483 355.72687376 342.29033072 353.47034748 342.29080774 C351.79176219 342.2911623 351.79176219 342.2911623 350.07926609 342.29152403 C344.40937075 342.29272525 338.73947541 342.29394069 333.06958008 342.29516602 C331.38175509 342.29552624 331.38175509 342.29552624 329.65983263 342.29589374 C293.16542014 342.30378928 256.67104014 342.32722595 220.17664184 342.35972196 C181.61160844 342.39399919 143.04659404 342.41372923 104.48154515 342.41702431 C100.25017527 342.41744187 96.0188054 342.41792143 91.78743553 342.41844749 C90.74551895 342.41857069 89.70360238 342.41869388 88.63011257 342.4188208 C71.84370319 342.4211554 55.05733146 342.43682978 38.27093551 342.45728934 C21.40642814 342.47751843 4.5419661 342.48303847 -12.32255115 342.47351871 C-22.34785733 342.46829245 -32.37301287 342.47423416 -42.39829744 342.49605338 C-49.0909857 342.50952156 -55.7835698 342.50851985 -62.476259 342.49565142 C-66.29228835 342.48872817 -70.10802887 342.48817544 -73.92403289 342.50521151 C-78.03241034 342.52340377 -82.14011266 342.51074329 -86.24849987 342.49498463 C-87.43630268 342.50520683 -88.62410549 342.51542904 -89.84790233 342.52596101 C-97.53104838 342.46126762 -103.36583913 341.59278522 -109.05859375 335.96484375 C-109.51363281 335.29582031 -109.96867187 334.62679688 -110.4375 333.9375 C-110.91058594 333.26589844 -111.38367188 332.59429688 -111.87109375 331.90234375 C-113.89196411 328.49693245 -114.12677868 325.7135082 -114.13422108 321.84305286 C-114.14090784 320.23216478 -114.14090784 320.23216478 -114.14772969 318.58873349 C-114.14754533 317.4045169 -114.14736097 316.22030031 -114.14717102 315.00019836 C-114.15084771 313.74554549 -114.1545244 312.49089261 -114.1583125 311.19821995 C-114.16833571 307.70875658 -114.17204981 304.21931041 -114.17470181 300.72983468 C-114.17860392 296.96895562 -114.18818233 293.2080902 -114.19691467 289.44721985 C-114.21668183 280.36122262 -114.22674565 271.27522428 -114.23564246 262.18921092 C-114.24002499 257.91107932 -114.24539189 253.63294896 -114.25063133 249.35481834 C-114.26764393 235.13436928 -114.28213826 220.913921 -114.28938007 206.69346333 C-114.29128999 203.00275484 -114.29321032 199.31204636 -114.29516602 195.62133789 C-114.29589163 194.24536635 -114.29589163 194.24536635 -114.2966319 192.8415974 C-114.30493278 177.98060979 -114.33027053 163.11970265 -114.36274669 148.25875018 C-114.395813 133.00344754 -114.41382845 117.74818581 -114.41702431 102.49284714 C-114.41918982 93.92667698 -114.42794435 85.36062416 -114.45348549 76.79448891 C-114.47518666 69.49934543 -114.48324581 62.20434782 -114.47351871 54.90917573 C-114.46897226 51.18763506 -114.47087989 47.46639537 -114.49028015 43.74489594 C-114.51114285 39.70795857 -114.50093224 35.67168942 -114.48774719 31.63471985 C-114.49871644 30.46165686 -114.50968568 29.28859388 -114.52098733 28.07998353 C-114.46029726 20.39221393 -113.42143429 14.96488358 -108.25390625 8.9765625 C-107.69574219 8.53054688 -107.13757813 8.08453125 -106.5625 7.625 C-105.72912109 6.93277344 -105.72912109 6.93277344 -104.87890625 6.2265625 C-100.96587261 3.67210811 -97.14184115 2.7273047 -92.53125 2.2890625 C-91.42467041 2.18053955 -90.31809082 2.0720166 -89.17797852 1.96020508 C-87.35737915 1.79427856 -87.35737915 1.79427856 -85.5 1.625 C-84.21859131 1.50342529 -82.93718262 1.38185059 -81.61694336 1.2565918 C-78.72149263 0.98302675 -75.82554621 0.71556215 -72.92919922 0.45166016 C-69.42759063 0.13229491 -65.92676668 -0.19455304 -62.42626953 -0.52587891 C-57.46354325 -0.99551038 -52.50011672 -1.45700528 -47.53613281 -1.91314697 C-45.57549711 -2.09403896 -43.61504156 -2.276896 -41.65478516 -2.46185303 C-7.07668031 -5.71039055 -7.07668031 -5.71039055 0 0 Z " fill="#57585A" transform="translate(114,377)"/>
</svg>
